<svg xmlns="http://www.w3.org/2000/svg" width="14" height="16" fill="none" viewBox="0 0 14 16">
  <path fill="#5A698F" d="M12.31 0c.162 0 .317.032.465.095.232.092.417.236.555.434.137.197.206.416.206.655v13.632c0 .24-.069.458-.206.655a1.192 1.192 0 01-.555.434 1.19 1.19 0 01-.466.084c-.338 0-.63-.112-.877-.338l-4.664-4.484-4.664 4.484a1.26 1.26 0 01-.877.349c-.162 0-.318-.032-.466-.095a1.192 1.192 0 01-.555-.434A1.122 1.122 0 010 14.816V1.184C0 .944.069.726.206.53.344.33.53.187.761.095A1.17 1.17 0 011.227 0h11.082z"/>
</svg>
