<svg xmlns="http://www.w3.org/2000/svg" width="16" height="16" fill="none" viewBox="0 0 16 16">
  <path fill="#fff" fill-rule="evenodd" d="M.8 0h5.6c.48 0 .8.32.8.8v5.6c0 .48-.32.8-.8.8H.8c-.48 0-.8-.32-.8-.8V.8C0 .32.32 0 .8 0zm0 8.8h5.6c.48 0 .8.32.8.8v5.6c0 .48-.32.8-.8.8H.8c-.48 0-.8-.32-.8-.8V9.6c0-.48.32-.8.8-.8zM15.2 0H9.6c-.48 0-.8.32-.8.8v5.6c0 .48.32.8.8.8h5.6c.48 0 .8-.32.8-.8V.8c0-.48-.32-.8-.8-.8zM9.6 8.8h5.6c.48 0 .8.32.8.8v5.6c0 .48-.32.8-.8.8H9.6c-.48 0-.8-.32-.8-.8V9.6c0-.48.32-.8.8-.8z" clip-rule="evenodd"/>
</svg>
